<svg xmlns="http://www.w3.org/2000/svg" xmlns:xlink="http://www.w3.org/1999/xlink" width="500" zoomAndPan="magnify" viewBox="0 0 375 74.999997" height="100" preserveAspectRatio="xMidYMid meet" version="1.0"><defs><clipPath id="64c8cd006e"><path d="M 7.5 14.917969 L 367.5 14.917969 L 367.5 59.917969 L 7.5 59.917969 Z M 7.5 14.917969 " clip-rule="nonzero"/></clipPath></defs><g clip-path="url(#64c8cd006e)"><path fill="#cec4ae" d="M 360.339844 37.402344 C 360.339844 35.433594 361.953125 33.824219 363.929688 33.824219 C 365.902344 33.824219 367.515625 35.433594 367.515625 37.402344 C 367.515625 39.367188 365.902344 40.976562 363.929688 40.976562 C 361.9375 40.976562 360.339844 39.367188 360.339844 37.402344 Z M 152.941406 38.683594 C 153.644531 38.683594 154.230469 38.121094 154.230469 37.402344 C 154.230469 36.699219 153.664062 36.117188 152.941406 36.117188 L 11.089844 36.117188 C 10.382812 36.117188 9.800781 36.683594 9.800781 37.402344 C 9.800781 38.101562 10.367188 38.683594 11.089844 38.683594 Z M 11.089844 40.976562 C 13.0625 40.976562 14.675781 39.367188 14.675781 37.402344 C 14.675781 35.433594 13.0625 33.824219 11.089844 33.824219 C 9.113281 33.84375 7.5 35.433594 7.5 37.402344 C 7.5 39.367188 9.113281 40.976562 11.089844 40.976562 Z M 152.941406 42.824219 C 155.929688 42.824219 158.382812 40.394531 158.382812 37.402344 C 158.382812 34.40625 155.945312 31.976562 152.941406 31.976562 C 149.953125 31.976562 147.5 34.40625 147.5 37.402344 C 147.5 40.394531 149.953125 42.824219 152.941406 42.824219 Z M 141.113281 40.976562 C 143.089844 40.976562 144.703125 39.367188 144.703125 37.402344 C 144.703125 35.433594 143.089844 33.824219 141.113281 33.824219 C 139.140625 33.824219 137.527344 35.433594 137.527344 37.402344 C 137.527344 39.367188 139.140625 40.976562 141.113281 40.976562 Z M 221.25 40.976562 C 223.226562 40.976562 224.839844 39.367188 224.839844 37.402344 C 224.839844 35.433594 223.226562 33.824219 221.25 33.824219 C 219.277344 33.824219 217.664062 35.433594 217.664062 37.402344 C 217.664062 39.367188 219.277344 40.976562 221.25 40.976562 Z M 183.894531 19.761719 Z M 187.5 17.109375 C 188.375 17.109375 189.441406 17.980469 189.75 19.882812 C 190.402344 23.9375 188.753906 29 187.5 32.097656 C 186.246094 29 184.597656 23.9375 185.25 19.882812 C 185.558594 17.980469 186.625 17.109375 187.5 17.109375 Z M 188.769531 35.722656 C 188.976562 35.347656 193.558594 26.449219 192.460938 19.625 C 191.945312 16.425781 189.59375 14.988281 187.5 14.988281 C 185.386719 14.988281 183.054688 16.425781 182.539062 19.625 C 181.441406 26.449219 186.039062 35.347656 186.230469 35.722656 C 186.4375 36.117188 186.933594 36.390625 187.5 36.390625 C 188.050781 36.390625 188.5625 36.136719 188.769531 35.722656 Z M 183.894531 55.039062 Z M 187.5 57.691406 C 188.375 57.691406 189.441406 56.820312 189.75 54.921875 C 190.402344 50.867188 188.753906 45.800781 187.5 42.6875 C 186.246094 45.785156 184.597656 50.847656 185.25 54.921875 C 185.558594 56.835938 186.625 57.691406 187.5 57.691406 Z M 188.769531 39.078125 C 188.976562 39.453125 193.558594 48.351562 192.460938 55.179688 C 191.945312 58.378906 189.59375 59.816406 187.5 59.816406 C 185.386719 59.816406 183.054688 58.378906 182.539062 55.179688 C 181.441406 48.351562 186.039062 39.453125 186.230469 39.078125 C 186.4375 38.683594 186.933594 38.410156 187.5 38.410156 C 188.050781 38.425781 188.5625 38.683594 188.769531 39.078125 Z M 168.308594 40.992188 Z M 165.644531 37.402344 C 165.644531 36.527344 166.519531 35.46875 168.425781 35.160156 C 172.496094 34.507812 177.578125 36.152344 180.703125 37.402344 C 177.59375 38.648438 172.511719 40.292969 168.425781 39.640625 C 166.519531 39.335938 165.644531 38.273438 165.644531 37.402344 Z M 184.324219 36.136719 C 183.945312 35.929688 175.019531 31.363281 168.167969 32.457031 C 164.960938 32.96875 163.515625 35.3125 163.515625 37.402344 C 163.515625 39.503906 164.960938 41.832031 168.167969 42.34375 C 175.019531 43.441406 183.945312 38.855469 184.324219 38.667969 C 184.71875 38.460938 184.992188 37.964844 184.992188 37.402344 C 184.992188 36.855469 184.734375 36.339844 184.324219 36.136719 Z M 206.691406 40.992188 Z M 209.355469 37.402344 C 209.355469 36.527344 208.480469 35.46875 206.574219 35.160156 C 202.503906 34.507812 197.421875 36.152344 194.296875 37.402344 C 197.40625 38.648438 202.488281 40.292969 206.574219 39.640625 C 208.480469 39.335938 209.355469 38.273438 209.355469 37.402344 Z M 190.675781 36.136719 C 191.054688 35.929688 199.980469 31.363281 206.832031 32.457031 C 210.039062 32.96875 211.484375 35.3125 211.484375 37.402344 C 211.484375 39.503906 210.039062 41.832031 206.832031 42.34375 C 199.980469 43.441406 191.054688 38.855469 190.675781 38.667969 C 190.28125 38.460938 190.007812 37.964844 190.007812 37.402344 C 190.007812 36.855469 190.265625 36.339844 190.675781 36.136719 Z M 222.039062 36.136719 C 221.335938 36.136719 220.753906 36.699219 220.753906 37.417969 C 220.753906 38.121094 221.320312 38.703125 222.039062 38.703125 L 363.910156 38.703125 C 364.617188 38.703125 365.199219 38.136719 365.199219 37.417969 C 365.199219 36.714844 364.632812 36.136719 363.910156 36.136719 Z M 363.910156 40.976562 C 365.886719 40.976562 367.5 39.367188 367.5 37.402344 C 367.5 35.433594 365.886719 33.824219 363.910156 33.824219 C 361.9375 33.824219 360.324219 35.433594 360.324219 37.402344 C 360.339844 39.367188 361.9375 40.976562 363.910156 40.976562 Z M 222.039062 42.824219 C 225.027344 42.824219 227.484375 40.394531 227.484375 37.402344 C 227.484375 34.40625 225.046875 31.976562 222.039062 31.976562 C 219.054688 31.976562 216.597656 34.40625 216.597656 37.402344 C 216.597656 40.394531 219.054688 42.824219 222.039062 42.824219 Z M 233.886719 40.976562 C 235.859375 40.976562 237.472656 39.367188 237.472656 37.402344 C 237.472656 35.433594 235.859375 33.824219 233.886719 33.824219 C 231.910156 33.824219 230.296875 35.433594 230.296875 37.402344 C 230.296875 39.367188 231.910156 40.976562 233.886719 40.976562 Z M 233.886719 40.976562 " fill-opacity="1" fill-rule="evenodd"/></g></svg>