<svg xmlns="http://www.w3.org/2000/svg" xmlns:xlink="http://www.w3.org/1999/xlink" width="500" zoomAndPan="magnify" viewBox="0 0 375 74.999997" height="100" preserveAspectRatio="xMidYMid meet" version="1.0"><defs><clipPath id="d299c25455"><path d="M 10 16.050781 L 193 16.050781 L 193 58.800781 L 10 58.800781 Z M 10 16.050781 " clip-rule="nonzero"/></clipPath><clipPath id="aa816962ba"><path d="M 182 16.050781 L 365 16.050781 L 365 58.800781 L 182 58.800781 Z M 182 16.050781 " clip-rule="nonzero"/></clipPath></defs><g clip-path="url(#d299c25455)"><path fill="#deba7e" d="M 10.082031 42.761719 C 10.730469 42.050781 11.433594 41.398438 12.1875 40.800781 C 12.945312 40.207031 13.746094 39.671875 14.585938 39.199219 C 16.289062 38.261719 18.082031 37.554688 19.96875 37.078125 C 21.851562 36.605469 23.761719 36.320312 25.699219 36.222656 C 27.632812 36.121094 29.566406 36.167969 31.496094 36.355469 C 32.460938 36.449219 33.417969 36.578125 34.375 36.734375 C 34.855469 36.808594 35.324219 36.90625 35.796875 36.996094 C 36.273438 37.089844 36.742188 37.1875 37.210938 37.289062 C 39.09375 37.703125 40.945312 38.183594 42.785156 38.6875 C 46.460938 39.699219 50.089844 40.792969 53.730469 41.613281 C 55.554688 42.015625 57.375 42.363281 59.203125 42.585938 C 60.984375 42.84375 62.773438 42.898438 64.566406 42.746094 C 65.417969 42.667969 66.257812 42.507812 67.078125 42.265625 C 67.859375 42.035156 68.597656 41.703125 69.292969 41.269531 C 70.628906 40.414062 71.570312 39.238281 72.113281 37.742188 C 72.351562 37.070312 72.4375 36.375 72.371094 35.664062 L 72.34375 35.417969 L 72.289062 35.175781 C 72.253906 35.015625 72.207031 34.859375 72.148438 34.707031 L 72.109375 34.59375 C 72.09375 34.558594 72.078125 34.53125 72.066406 34.496094 L 72.023438 34.40625 L 71.96875 34.316406 C 71.902344 34.195312 71.820312 34.078125 71.730469 33.972656 C 71.3125 33.480469 70.800781 33.128906 70.191406 32.917969 C 69.882812 32.804688 69.5625 32.730469 69.234375 32.695312 C 68.929688 32.664062 68.625 32.675781 68.320312 32.726562 C 68.058594 32.769531 67.8125 32.855469 67.582031 32.988281 C 67.386719 33.101562 67.222656 33.25 67.085938 33.433594 C 66.789062 33.882812 66.660156 34.371094 66.703125 34.910156 C 66.75 35.546875 66.945312 36.136719 67.289062 36.679688 C 67.332031 36.746094 67.375 36.816406 67.421875 36.878906 L 67.566406 37.066406 L 67.71875 37.238281 C 67.769531 37.296875 67.835938 37.359375 67.890625 37.410156 C 68.144531 37.65625 68.417969 37.875 68.710938 38.070312 C 69.363281 38.488281 70.058594 38.808594 70.796875 39.035156 C 71.183594 39.164062 71.582031 39.269531 71.996094 39.359375 C 72.410156 39.453125 72.835938 39.511719 73.257812 39.582031 C 74.964844 39.835938 76.675781 39.863281 78.390625 39.667969 C 80.113281 39.476562 81.785156 39.078125 83.40625 38.46875 C 85.027344 37.863281 86.558594 37.074219 87.988281 36.097656 L 88.511719 35.726562 C 88.691406 35.605469 88.863281 35.476562 89.027344 35.339844 C 89.355469 35.066406 89.6875 34.796875 90.011719 34.519531 L 90.9375 33.636719 C 91.230469 33.332031 91.507812 33.003906 91.792969 32.695312 C 91.863281 32.613281 91.941406 32.539062 92.003906 32.457031 L 92.195312 32.203125 L 92.582031 31.699219 C 92.84375 31.371094 93.085938 31.027344 93.304688 30.671875 C 93.746094 29.984375 94.121094 29.265625 94.429688 28.511719 C 94.71875 27.804688 94.917969 27.074219 95.023438 26.320312 L 95.058594 26.050781 C 95.066406 25.960938 95.070312 25.878906 95.074219 25.78125 C 95.09375 25.609375 95.082031 25.429688 95.085938 25.253906 C 95.085938 25.164062 95.078125 25.082031 95.074219 24.992188 C 95.070312 24.902344 95.074219 24.820312 95.050781 24.738281 L 95.019531 24.503906 C 95.019531 24.421875 94.988281 24.34375 94.972656 24.265625 C 94.835938 23.613281 94.585938 23.015625 94.21875 22.460938 C 94.175781 22.394531 94.128906 22.328125 94.078125 22.265625 L 93.933594 22.074219 L 93.699219 21.816406 L 93.617188 21.738281 L 93.445312 21.578125 L 93.273438 21.441406 L 93.191406 21.363281 L 93.101562 21.304688 L 92.929688 21.183594 C 92.480469 20.902344 91.988281 20.765625 91.457031 20.773438 C 90.925781 20.78125 90.441406 20.933594 90 21.230469 C 89.46875 21.574219 89.023438 22.007812 88.664062 22.53125 C 88.28125 23.082031 88.003906 23.679688 87.835938 24.328125 C 87.753906 24.640625 87.707031 24.953125 87.6875 25.273438 L 87.6875 25.730469 C 87.6875 25.804688 87.699219 25.878906 87.703125 25.953125 C 87.710938 26.03125 87.730469 26.125 87.742188 26.203125 C 87.847656 26.90625 88.058594 27.582031 88.371094 28.222656 C 89 29.542969 90.03125 30.792969 91.28125 31.855469 C 91.914062 32.398438 92.578125 32.902344 93.277344 33.355469 L 93.546875 33.527344 L 93.824219 33.699219 L 94.378906 34.027344 C 94.5625 34.140625 94.753906 34.238281 94.949219 34.335938 L 95.523438 34.636719 C 97.074219 35.40625 98.691406 36.007812 100.371094 36.441406 C 103.765625 37.332031 107.199219 37.511719 110.667969 36.988281 L 111.9375 36.757812 L 113.195312 36.464844 C 114.03125 36.230469 114.863281 35.984375 115.683594 35.667969 C 117.351562 35.042969 118.960938 34.296875 120.515625 33.429688 C 122.097656 32.574219 123.648438 31.589844 125.1875 30.5625 C 126.726562 29.535156 128.253906 28.449219 129.8125 27.355469 C 132.917969 25.167969 136.109375 22.914062 139.628906 21.03125 C 141.410156 20.066406 143.253906 19.242188 145.164062 18.5625 C 145.402344 18.472656 145.648438 18.390625 145.894531 18.316406 L 146.628906 18.085938 L 147.375 17.882812 C 147.625 17.816406 147.871094 17.746094 148.125 17.695312 C 148.628906 17.582031 149.128906 17.464844 149.644531 17.382812 C 149.898438 17.339844 150.15625 17.285156 150.410156 17.25 L 151.179688 17.148438 C 153.277344 16.878906 155.371094 16.886719 157.46875 17.175781 C 157.730469 17.203125 157.992188 17.257812 158.253906 17.304688 C 158.519531 17.355469 158.78125 17.402344 159.042969 17.457031 L 159.820312 17.652344 L 160.210938 17.753906 L 160.597656 17.875 L 161.367188 18.128906 C 161.621094 18.21875 161.871094 18.324219 162.121094 18.425781 C 162.636719 18.613281 163.113281 18.867188 163.601562 19.109375 C 164.585938 19.617188 165.507812 20.222656 166.359375 20.933594 C 167.210938 21.632812 167.980469 22.414062 168.671875 23.273438 C 170.082031 25.003906 171.082031 26.945312 171.679688 29.097656 C 171.976562 30.191406 172.136719 31.300781 172.164062 32.433594 C 172.21875 34.800781 171.632812 36.992188 170.398438 39.011719 C 169.808594 39.988281 169.097656 40.863281 168.269531 41.648438 C 167.464844 42.410156 166.585938 43.070312 165.628906 43.632812 C 164.707031 44.175781 163.738281 44.636719 162.734375 45.007812 C 160.761719 45.726562 158.730469 46.160156 156.636719 46.304688 C 155.609375 46.382812 154.582031 46.394531 153.550781 46.339844 C 153.292969 46.324219 153.039062 46.3125 152.777344 46.285156 L 152.394531 46.253906 L 151.996094 46.207031 C 151.464844 46.140625 150.941406 46.050781 150.421875 45.9375 C 149.378906 45.710938 148.363281 45.386719 147.378906 44.96875 C 146.359375 44.539062 145.40625 43.992188 144.519531 43.324219 C 143.558594 42.609375 142.769531 41.734375 142.15625 40.703125 C 141.675781 39.878906 141.371094 38.992188 141.246094 38.046875 C 141.125 37.097656 141.1875 36.164062 141.441406 35.242188 C 141.609375 34.640625 141.847656 34.066406 142.164062 33.527344 C 142.765625 32.519531 143.527344 31.660156 144.457031 30.945312 C 145.308594 30.28125 146.222656 29.722656 147.199219 29.265625 C 148.140625 28.828125 149.113281 28.46875 150.113281 28.1875 C 150.359375 28.117188 150.613281 28.050781 150.855469 27.996094 L 151.582031 27.839844 C 152.066406 27.738281 152.550781 27.628906 153.035156 27.535156 L 154.5 27.3125 L 155.234375 27.199219 L 155.96875 27.132812 L 157.441406 27 C 157.933594 26.976562 158.425781 26.964844 158.921875 26.945312 L 159.65625 26.921875 C 159.902344 26.914062 160.148438 26.921875 160.394531 26.933594 L 161.871094 26.96875 C 163.835938 27.070312 165.78125 27.3125 167.710938 27.703125 L 168.429688 27.847656 L 168.789062 27.921875 L 169.144531 28.011719 L 170.566406 28.382812 C 171.042969 28.492188 171.503906 28.660156 171.972656 28.804688 L 172.671875 29.03125 C 172.902344 29.105469 173.136719 29.171875 173.355469 29.265625 L 174.726562 29.792969 C 174.953125 29.882812 175.183594 29.964844 175.410156 30.0625 L 176.078125 30.363281 C 176.523438 30.566406 176.972656 30.761719 177.410156 30.972656 L 178.710938 31.65625 L 179.355469 32 L 179.984375 32.375 L 181.238281 33.125 L 182.4375 33.949219 L 183.039062 34.359375 C 183.238281 34.5 183.429688 34.65625 183.621094 34.804688 C 185.195312 35.964844 186.644531 37.269531 187.960938 38.714844 C 189.304688 40.171875 190.410156 41.785156 191.285156 43.5625 C 191.714844 44.453125 192.058594 45.378906 192.3125 46.335938 C 192.570312 47.296875 192.703125 48.277344 192.71875 49.273438 C 192.734375 50.265625 192.628906 51.242188 192.398438 52.203125 C 192.171875 53.160156 191.832031 54.074219 191.378906 54.945312 C 190.929688 55.816406 190.355469 56.601562 189.664062 57.296875 C 188.964844 57.984375 188.171875 58.535156 187.285156 58.945312 L 187.160156 58.703125 C 188.878906 57.808594 190.152344 56.488281 190.980469 54.738281 C 191.386719 53.890625 191.683594 53.007812 191.871094 52.085938 C 192.0625 51.160156 192.136719 50.230469 192.089844 49.289062 C 192.050781 48.347656 191.902344 47.425781 191.640625 46.523438 C 191.371094 45.621094 191.023438 44.75 190.589844 43.914062 C 189.707031 42.234375 188.605469 40.714844 187.28125 39.355469 C 185.972656 37.992188 184.542969 36.765625 182.996094 35.675781 C 182.804688 35.535156 182.621094 35.390625 182.425781 35.257812 L 180.644531 34.097656 L 179.410156 33.398438 L 178.796875 33.054688 L 178.160156 32.738281 L 176.890625 32.109375 C 176.460938 31.917969 176.023438 31.738281 175.589844 31.550781 L 174.925781 31.273438 C 174.710938 31.175781 174.484375 31.101562 174.261719 31.027344 L 172.929688 30.546875 C 172.710938 30.460938 172.480469 30.402344 172.253906 30.332031 L 171.570312 30.132812 C 171.117188 30 170.667969 29.847656 170.199219 29.753906 L 168.828125 29.425781 L 168.484375 29.34375 L 168.144531 29.28125 L 167.445312 29.160156 L 166.746094 29.035156 L 166.40625 28.972656 C 166.289062 28.953125 166.171875 28.941406 166.0625 28.925781 L 164.65625 28.753906 C 164.191406 28.683594 163.714844 28.671875 163.246094 28.636719 L 162.539062 28.589844 C 162.304688 28.578125 162.066406 28.550781 161.832031 28.554688 L 160.417969 28.542969 C 160.179688 28.542969 159.941406 28.53125 159.707031 28.542969 L 159 28.574219 C 158.53125 28.601562 158.058594 28.617188 157.585938 28.648438 L 156.179688 28.800781 L 155.476562 28.878906 L 154.777344 28.992188 L 153.382812 29.230469 C 152.921875 29.328125 152.460938 29.441406 152.003906 29.546875 C 151.542969 29.648438 151.082031 29.75 150.632812 29.886719 C 148.839844 30.429688 147.101562 31.222656 145.652344 32.394531 C 144.921875 32.972656 144.320312 33.664062 143.847656 34.46875 C 143.386719 35.277344 143.160156 36.148438 143.164062 37.082031 C 143.164062 38.015625 143.40625 38.882812 143.886719 39.679688 C 144.375 40.476562 144.996094 41.144531 145.75 41.691406 C 146.503906 42.246094 147.316406 42.699219 148.179688 43.050781 C 149.046875 43.40625 149.941406 43.679688 150.859375 43.871094 C 151.316406 43.964844 151.777344 44.039062 152.246094 44.09375 C 152.476562 44.117188 152.710938 44.136719 152.945312 44.152344 C 153.179688 44.167969 153.414062 44.183594 153.648438 44.195312 C 154.589844 44.234375 155.527344 44.210938 156.464844 44.132812 C 158.351562 43.980469 160.179688 43.570312 161.949219 42.90625 C 162.824219 42.570312 163.664062 42.160156 164.464844 41.675781 C 165.265625 41.191406 166.003906 40.625 166.675781 39.972656 C 167.339844 39.328125 167.910156 38.609375 168.382812 37.8125 C 169.367188 36.175781 169.832031 34.40625 169.773438 32.5 C 169.746094 31.570312 169.605469 30.65625 169.351562 29.757812 C 168.835938 27.9375 167.976562 26.300781 166.769531 24.839844 C 165.578125 23.371094 164.140625 22.203125 162.457031 21.34375 C 162.035156 21.144531 161.621094 20.925781 161.179688 20.765625 C 160.960938 20.683594 160.746094 20.59375 160.527344 20.515625 L 159.859375 20.300781 L 159.523438 20.199219 L 159.179688 20.113281 L 158.496094 19.941406 C 158.265625 19.898438 158.035156 19.855469 157.808594 19.8125 C 157.582031 19.769531 157.351562 19.726562 157.117188 19.707031 C 155.246094 19.460938 153.375 19.46875 151.503906 19.722656 C 149.632812 19.96875 147.808594 20.410156 146.03125 21.046875 C 144.257812 21.6875 142.546875 22.464844 140.890625 23.371094 C 137.558594 25.160156 134.460938 27.359375 131.371094 29.550781 C 128.277344 31.746094 125.171875 33.96875 121.828125 35.8125 C 120.15625 36.75 118.421875 37.554688 116.632812 38.226562 C 115.738281 38.570312 114.816406 38.847656 113.890625 39.105469 L 112.488281 39.441406 L 111.074219 39.695312 C 107.230469 40.273438 103.429688 40.066406 99.671875 39.074219 C 97.808594 38.585938 96.019531 37.910156 94.300781 37.050781 L 93.664062 36.71875 C 93.449219 36.605469 93.238281 36.496094 93.03125 36.375 L 92.414062 36.007812 L 92.101562 35.824219 L 91.800781 35.628906 C 90.992188 35.109375 90.222656 34.53125 89.492188 33.902344 C 88.042969 32.644531 86.765625 31.140625 85.929688 29.378906 C 85.507812 28.492188 85.226562 27.5625 85.085938 26.589844 C 84.933594 25.601562 84.992188 24.628906 85.253906 23.667969 C 85.511719 22.707031 85.929688 21.824219 86.507812 21.019531 C 87.074219 20.199219 87.78125 19.523438 88.628906 18.996094 C 89.050781 18.726562 89.503906 18.519531 89.984375 18.378906 C 90.464844 18.238281 90.957031 18.167969 91.457031 18.164062 C 91.960938 18.164062 92.453125 18.234375 92.933594 18.375 C 93.414062 18.515625 93.867188 18.71875 94.292969 18.988281 C 94.394531 19.054688 94.496094 19.128906 94.597656 19.199219 L 94.75 19.300781 C 94.800781 19.339844 94.847656 19.378906 94.894531 19.417969 L 95.171875 19.648438 L 95.4375 19.90625 C 95.621094 20.078125 95.765625 20.269531 95.933594 20.453125 C 96.007812 20.546875 96.082031 20.648438 96.152344 20.746094 C 96.230469 20.84375 96.300781 20.945312 96.363281 21.050781 C 96.910156 21.882812 97.277344 22.785156 97.472656 23.761719 C 97.660156 24.726562 97.675781 25.699219 97.53125 26.671875 C 97.386719 27.636719 97.125 28.570312 96.746094 29.46875 C 96.371094 30.359375 95.921875 31.210938 95.394531 32.019531 C 95.136719 32.421875 94.859375 32.8125 94.558594 33.183594 L 94.117188 33.753906 L 93.894531 34.035156 C 93.820312 34.132812 93.734375 34.214844 93.65625 34.304688 C 93.328125 34.65625 93.011719 35.019531 92.675781 35.363281 L 91.628906 36.347656 C 91.261719 36.65625 90.886719 36.953125 90.515625 37.257812 C 90.332031 37.417969 90.128906 37.546875 89.933594 37.683594 L 89.347656 38.097656 C 87.746094 39.167969 86.039062 40.035156 84.230469 40.695312 C 82.421875 41.363281 80.558594 41.792969 78.640625 41.984375 C 76.71875 42.175781 74.808594 42.121094 72.90625 41.8125 C 71.949219 41.671875 71.015625 41.453125 70.101562 41.144531 C 69.171875 40.84375 68.304688 40.417969 67.492188 39.875 C 67.085938 39.601562 66.710938 39.289062 66.367188 38.941406 C 65.269531 37.84375 64.683594 36.523438 64.605469 34.976562 C 64.550781 33.9375 64.832031 32.996094 65.445312 32.15625 C 65.761719 31.753906 66.140625 31.425781 66.589844 31.175781 C 67.03125 30.933594 67.5 30.777344 68 30.703125 C 69 30.558594 69.972656 30.671875 70.914062 31.046875 C 71.863281 31.398438 72.65625 31.96875 73.289062 32.761719 C 73.601562 33.15625 73.835938 33.59375 73.992188 34.070312 C 74.078125 34.300781 74.144531 34.539062 74.191406 34.78125 L 74.261719 35.144531 C 74.277344 35.265625 74.285156 35.390625 74.296875 35.511719 C 74.371094 36.503906 74.230469 37.46875 73.882812 38.398438 C 73.160156 40.285156 71.9375 41.753906 70.210938 42.804688 C 69.375 43.304688 68.488281 43.683594 67.550781 43.941406 C 66.617188 44.199219 65.671875 44.367188 64.707031 44.4375 C 62.789062 44.566406 60.882812 44.476562 58.988281 44.167969 C 57.097656 43.894531 55.230469 43.527344 53.378906 43.0625 C 49.6875 42.136719 46.066406 40.957031 42.441406 39.867188 C 40.621094 39.324219 38.800781 38.808594 36.957031 38.363281 C 36.496094 38.25 36.035156 38.136719 35.574219 38.042969 C 35.109375 37.949219 34.648438 37.835938 34.183594 37.75 C 33.253906 37.582031 32.320312 37.421875 31.382812 37.304688 C 27.636719 36.851562 23.800781 36.878906 20.113281 37.707031 C 18.257812 38.113281 16.488281 38.746094 14.800781 39.613281 C 13.117188 40.488281 11.609375 41.601562 10.277344 42.953125 Z M 10.082031 42.761719 " fill-opacity="1" fill-rule="nonzero"/></g><g clip-path="url(#aa816962ba)"><path fill="#deba7e" d="M 364.714844 42.953125 C 363.34375 41.652344 361.808594 40.589844 360.105469 39.765625 C 358.410156 38.960938 356.640625 38.382812 354.796875 38.035156 C 351.136719 37.3125 347.351562 37.375 343.675781 37.917969 C 342.753906 38.050781 341.835938 38.226562 340.933594 38.429688 C 340.703125 38.476562 340.476562 38.53125 340.246094 38.589844 L 339.5625 38.75 C 339.105469 38.851562 338.652344 38.972656 338.191406 39.09375 C 336.378906 39.566406 334.578125 40.121094 332.777344 40.695312 C 329.179688 41.847656 325.582031 43.105469 321.851562 44.113281 C 319.972656 44.617188 318.070312 45.023438 316.152344 45.332031 C 314.167969 45.679688 312.171875 45.804688 310.164062 45.699219 C 308.105469 45.566406 305.980469 45.089844 304.0625 43.96875 C 303.085938 43.390625 302.230469 42.671875 301.492188 41.808594 C 300.742188 40.9375 300.160156 39.964844 299.742188 38.894531 C 299.300781 37.765625 299.117188 36.59375 299.195312 35.382812 C 299.207031 35.230469 299.21875 35.078125 299.234375 34.921875 L 299.316406 34.464844 C 299.34375 34.3125 299.375 34.160156 299.417969 34.007812 L 299.558594 33.5625 L 299.632812 33.339844 C 299.65625 33.265625 299.695312 33.183594 299.726562 33.109375 L 299.828125 32.875 L 299.945312 32.652344 C 300.101562 32.359375 300.28125 32.078125 300.484375 31.8125 C 301.289062 30.789062 302.296875 30.046875 303.507812 29.585938 C 304.710938 29.101562 305.949219 28.949219 307.230469 29.132812 C 307.917969 29.230469 308.566406 29.445312 309.175781 29.777344 C 309.820312 30.128906 310.371094 30.59375 310.828125 31.171875 C 311.695312 32.320312 312.097656 33.609375 312.042969 35.042969 C 312.027344 35.691406 311.925781 36.320312 311.734375 36.941406 C 311.550781 37.539062 311.300781 38.113281 310.980469 38.652344 C 310.898438 38.785156 310.816406 38.921875 310.730469 39.050781 L 310.46875 39.441406 L 310.164062 39.808594 C 310.0625 39.929688 309.957031 40.035156 309.851562 40.152344 C 309.433594 40.582031 308.976562 40.964844 308.480469 41.308594 C 307.546875 41.953125 306.539062 42.453125 305.464844 42.820312 C 304.949219 43 304.433594 43.148438 303.921875 43.277344 C 303.40625 43.402344 302.894531 43.492188 302.378906 43.589844 C 300.316406 43.945312 298.246094 44.03125 296.164062 43.84375 C 294.089844 43.652344 292.070312 43.203125 290.109375 42.492188 C 288.148438 41.789062 286.296875 40.863281 284.5625 39.714844 L 283.917969 39.273438 C 283.707031 39.121094 283.488281 38.980469 283.285156 38.8125 C 282.878906 38.484375 282.46875 38.164062 282.070312 37.828125 L 280.917969 36.757812 C 280.550781 36.390625 280.203125 35.996094 279.84375 35.613281 C 279.757812 35.515625 279.660156 35.421875 279.582031 35.320312 L 279.335938 35.011719 L 278.847656 34.394531 C 278.515625 33.980469 278.203125 33.550781 277.917969 33.105469 C 277.316406 32.195312 276.804688 31.242188 276.375 30.242188 C 275.929688 29.1875 275.617188 28.09375 275.441406 26.964844 C 275.253906 25.757812 275.273438 24.554688 275.5 23.351562 C 275.742188 22.121094 276.207031 20.980469 276.890625 19.925781 C 276.96875 19.792969 277.0625 19.664062 277.15625 19.539062 C 277.25 19.410156 277.339844 19.28125 277.4375 19.160156 L 277.746094 18.796875 C 277.800781 18.738281 277.851562 18.675781 277.90625 18.625 L 278.078125 18.453125 C 278.191406 18.339844 278.304688 18.226562 278.417969 18.109375 L 278.792969 17.796875 C 278.859375 17.742188 278.917969 17.6875 278.988281 17.640625 L 279.191406 17.496094 C 279.324219 17.402344 279.460938 17.304688 279.601562 17.214844 C 280.808594 16.460938 282.121094 16.078125 283.542969 16.0625 C 284.25 16.058594 284.945312 16.15625 285.625 16.355469 C 286.277344 16.550781 286.894531 16.824219 287.472656 17.179688 C 288.570312 17.859375 289.492188 18.726562 290.230469 19.785156 C 290.953125 20.800781 291.472656 21.914062 291.796875 23.117188 C 291.960938 23.730469 292.0625 24.351562 292.105469 24.980469 L 292.125 25.460938 C 292.125 25.621094 292.125 25.785156 292.125 25.945312 C 292.125 26.105469 292.101562 26.269531 292.089844 26.433594 C 292.078125 26.597656 292.050781 26.738281 292.03125 26.890625 C 291.859375 28.078125 291.515625 29.210938 291.003906 30.292969 C 290.515625 31.328125 289.910156 32.292969 289.191406 33.183594 C 288.507812 34.039062 287.75 34.824219 286.917969 35.542969 C 286.113281 36.242188 285.265625 36.878906 284.367188 37.457031 L 284.035156 37.671875 L 283.695312 37.871094 L 283.023438 38.265625 C 282.804688 38.402344 282.574219 38.523438 282.339844 38.640625 L 281.652344 39 C 279.796875 39.929688 277.867188 40.660156 275.859375 41.1875 C 271.8125 42.265625 267.714844 42.492188 263.566406 41.871094 L 262.039062 41.59375 L 260.523438 41.234375 C 259.53125 40.953125 258.542969 40.65625 257.589844 40.289062 C 255.699219 39.578125 253.871094 38.726562 252.105469 37.738281 C 250.359375 36.773438 248.695312 35.722656 247.078125 34.636719 C 245.464844 33.554688 243.898438 32.4375 242.355469 31.332031 C 239.273438 29.125 236.253906 26.976562 233.089844 25.25 C 231.53125 24.390625 229.917969 23.65625 228.246094 23.042969 C 226.613281 22.453125 224.9375 22.035156 223.214844 21.792969 C 221.527344 21.546875 219.835938 21.53125 218.144531 21.734375 C 217.9375 21.753906 217.734375 21.792969 217.527344 21.828125 L 216.914062 21.9375 L 216.011719 22.148438 L 215.71875 22.242188 L 215.128906 22.421875 C 214.9375 22.488281 214.75 22.566406 214.558594 22.636719 C 214.171875 22.773438 213.8125 22.960938 213.441406 23.128906 C 210.636719 24.5 208.363281 27.242188 207.5 30.269531 C 207.28125 31.015625 207.160156 31.773438 207.128906 32.550781 C 207.105469 33.300781 207.183594 34.046875 207.359375 34.777344 C 207.554688 35.507812 207.839844 36.195312 208.21875 36.847656 C 208.609375 37.511719 209.078125 38.113281 209.625 38.65625 C 210.71875 39.761719 212.148438 40.621094 213.703125 41.25 C 215.308594 41.875 216.96875 42.265625 218.6875 42.429688 C 219.550781 42.515625 220.417969 42.542969 221.285156 42.515625 C 221.5 42.515625 221.71875 42.503906 221.933594 42.488281 L 222.257812 42.46875 L 222.570312 42.441406 C 222.984375 42.398438 223.394531 42.335938 223.804688 42.257812 C 224.628906 42.101562 225.425781 41.867188 226.207031 41.5625 C 226.953125 41.269531 227.652344 40.894531 228.304688 40.429688 C 228.898438 40.015625 229.390625 39.507812 229.78125 38.898438 C 230.132812 38.34375 230.3125 37.742188 230.320312 37.085938 C 230.335938 36.417969 230.183594 35.789062 229.863281 35.203125 C 229.496094 34.550781 229.023438 33.988281 228.441406 33.511719 C 227.230469 32.484375 225.640625 31.710938 223.988281 31.183594 C 223.777344 31.121094 223.578125 31.058594 223.355469 31.003906 L 222.695312 30.832031 C 222.253906 30.722656 221.816406 30.609375 221.371094 30.503906 L 220.03125 30.253906 L 219.359375 30.128906 L 218.671875 30.046875 L 217.316406 29.875 C 216.859375 29.835938 216.402344 29.8125 215.945312 29.78125 L 215.257812 29.734375 C 215.03125 29.71875 214.800781 29.734375 214.574219 29.722656 L 213.203125 29.710938 C 212.972656 29.710938 212.746094 29.730469 212.515625 29.734375 L 211.832031 29.769531 C 211.375 29.792969 210.914062 29.800781 210.460938 29.859375 L 209.089844 30.003906 C 208.976562 30.019531 208.863281 30.027344 208.746094 30.042969 L 208.40625 30.09375 L 207.71875 30.203125 L 207.035156 30.3125 L 206.691406 30.363281 L 206.347656 30.4375 L 205 30.726562 C 204.546875 30.8125 204.109375 30.953125 203.664062 31.070312 L 203.03125 31.261719 C 202.808594 31.324219 202.582031 31.378906 202.367188 31.457031 L 201.058594 31.898438 C 200.839844 31.976562 200.617188 32.039062 200.402344 32.125 L 199.761719 32.382812 C 199.335938 32.554688 198.90625 32.726562 198.480469 32.898438 L 197.226562 33.488281 L 196.601562 33.78125 L 195.992188 34.113281 L 194.773438 34.773438 L 193.597656 35.503906 L 193.007812 35.871094 C 192.8125 35.996094 192.628906 36.136719 192.4375 36.269531 C 190.902344 37.304688 189.472656 38.472656 188.152344 39.773438 C 186.835938 41.0625 185.726562 42.511719 184.828125 44.121094 C 184.390625 44.921875 184.03125 45.757812 183.75 46.628906 C 183.472656 47.496094 183.300781 48.386719 183.234375 49.296875 C 183.164062 50.210938 183.210938 51.121094 183.371094 52.027344 C 183.527344 52.9375 183.792969 53.8125 184.167969 54.65625 C 184.941406 56.410156 186.160156 57.753906 187.828125 58.695312 L 187.710938 58.941406 C 185.933594 58.023438 184.613281 56.664062 183.75 54.863281 C 183.332031 53.992188 183.023438 53.082031 182.828125 52.136719 C 182.628906 51.191406 182.550781 50.234375 182.59375 49.269531 C 182.632812 48.304688 182.785156 47.359375 183.050781 46.429688 C 183.324219 45.507812 183.675781 44.617188 184.113281 43.757812 C 185.003906 42.050781 186.121094 40.503906 187.460938 39.117188 C 188.785156 37.734375 190.226562 36.488281 191.789062 35.382812 C 191.980469 35.242188 192.167969 35.09375 192.367188 34.960938 L 192.964844 34.566406 L 194.164062 33.785156 L 196.027344 32.71875 L 196.664062 32.398438 L 197.945312 31.757812 C 198.378906 31.5625 198.824219 31.378906 199.257812 31.191406 L 199.917969 30.910156 C 200.136719 30.8125 200.363281 30.738281 200.585938 30.65625 L 201.929688 30.167969 C 202.152344 30.082031 202.386719 30.023438 202.617188 29.953125 L 203.300781 29.746094 C 203.757812 29.613281 204.210938 29.457031 204.671875 29.359375 L 206.0625 29.023438 L 206.40625 28.941406 L 206.75 28.878906 L 207.453125 28.75 C 209.332031 28.40625 211.230469 28.199219 213.140625 28.132812 L 214.570312 28.117188 C 214.808594 28.117188 215.046875 28.105469 215.285156 28.117188 L 216 28.152344 C 216.476562 28.175781 216.953125 28.195312 217.429688 28.222656 L 218.855469 28.375 L 219.566406 28.453125 L 220.269531 28.574219 L 221.707031 28.816406 C 222.171875 28.914062 222.636719 29.027344 223.105469 29.132812 C 223.570312 29.238281 224.035156 29.339844 224.496094 29.476562 C 226.328125 30.027344 228.113281 30.835938 229.636719 32.046875 C 230.410156 32.660156 231.046875 33.390625 231.542969 34.242188 C 232.046875 35.117188 232.296875 36.0625 232.292969 37.070312 C 232.292969 38.085938 232.03125 39.023438 231.511719 39.894531 C 230.996094 40.738281 230.335938 41.453125 229.53125 42.035156 C 228.75 42.613281 227.90625 43.085938 227.007812 43.453125 C 226.113281 43.820312 225.195312 44.101562 224.25 44.296875 C 223.777344 44.394531 223.300781 44.472656 222.824219 44.527344 C 222.582031 44.554688 222.34375 44.578125 222.105469 44.59375 C 221.863281 44.609375 221.625 44.625 221.386719 44.636719 C 220.429688 44.675781 219.472656 44.65625 218.515625 44.574219 C 216.589844 44.417969 214.722656 44.003906 212.910156 43.324219 C 212.007812 42.980469 211.144531 42.558594 210.320312 42.058594 C 209.484375 41.558594 208.722656 40.972656 208.023438 40.296875 C 207.320312 39.621094 206.71875 38.867188 206.214844 38.03125 C 205.183594 36.324219 204.691406 34.476562 204.742188 32.484375 C 204.769531 31.511719 204.914062 30.554688 205.175781 29.617188 C 205.707031 27.734375 206.597656 26.035156 207.84375 24.519531 C 209.078125 22.996094 210.566406 21.789062 212.308594 20.894531 C 212.746094 20.6875 213.167969 20.460938 213.628906 20.300781 C 213.851562 20.210938 214.074219 20.117188 214.300781 20.035156 L 214.988281 19.820312 L 215.328125 19.710938 L 215.671875 19.625 L 216.371094 19.453125 C 216.609375 19.40625 216.847656 19.367188 217.082031 19.324219 C 217.320312 19.28125 217.554688 19.230469 217.792969 19.210938 C 219.707031 18.957031 221.625 18.960938 223.539062 19.21875 C 225.445312 19.46875 227.304688 19.917969 229.113281 20.5625 C 230.921875 21.207031 232.667969 21.988281 234.351562 22.902344 C 237.71875 24.714844 240.835938 26.921875 243.925781 29.117188 C 247.019531 31.316406 250.113281 33.519531 253.425781 35.335938 C 255.074219 36.261719 256.78125 37.054688 258.550781 37.722656 C 259.429688 38.0625 260.328125 38.328125 261.234375 38.578125 L 262.605469 38.902344 L 263.992188 39.152344 C 267.761719 39.722656 271.488281 39.519531 275.175781 38.550781 C 277 38.074219 278.757812 37.414062 280.445312 36.570312 L 281.070312 36.246094 C 281.28125 36.140625 281.488281 36.03125 281.6875 35.902344 L 282.296875 35.546875 L 282.597656 35.375 L 282.894531 35.183594 C 283.683594 34.675781 284.433594 34.117188 285.144531 33.503906 C 286.554688 32.285156 287.789062 30.832031 288.582031 29.152344 C 288.984375 28.3125 289.25 27.433594 289.386719 26.515625 C 289.527344 25.597656 289.476562 24.691406 289.230469 23.792969 C 288.992188 22.898438 288.609375 22.070312 288.074219 21.308594 C 287.546875 20.546875 286.890625 19.917969 286.105469 19.425781 C 285.722656 19.179688 285.3125 18.988281 284.875 18.859375 C 284.4375 18.730469 283.992188 18.664062 283.535156 18.664062 C 283.082031 18.664062 282.632812 18.726562 282.195312 18.851562 C 281.757812 18.980469 281.347656 19.167969 280.964844 19.410156 C 279.421875 20.382812 278.355469 22.0625 277.996094 23.855469 C 277.820312 24.765625 277.804688 25.679688 277.941406 26.597656 C 278.082031 27.519531 278.328125 28.410156 278.6875 29.269531 C 279.050781 30.136719 279.488281 30.960938 280 31.746094 C 280.25 32.140625 280.523438 32.523438 280.816406 32.890625 L 281.246094 33.445312 L 281.464844 33.722656 C 281.535156 33.8125 281.621094 33.894531 281.699219 33.984375 C 282.015625 34.328125 282.324219 34.683594 282.652344 35.011719 L 283.679688 35.976562 C 284.039062 36.28125 284.40625 36.574219 284.769531 36.871094 C 284.941406 37.023438 285.144531 37.152344 285.335938 37.289062 L 285.914062 37.695312 C 287.484375 38.75 289.15625 39.605469 290.933594 40.253906 C 292.710938 40.910156 294.539062 41.332031 296.417969 41.523438 C 298.296875 41.710938 300.167969 41.65625 302.03125 41.351562 C 302.960938 41.21875 303.871094 41.003906 304.761719 40.707031 C 305.652344 40.417969 306.484375 40.015625 307.261719 39.496094 C 308.039062 38.984375 308.671875 38.332031 309.164062 37.542969 C 309.648438 36.746094 309.914062 35.886719 309.957031 34.957031 C 310.007812 34.023438 309.757812 33.183594 309.207031 32.429688 C 308.929688 32.074219 308.59375 31.789062 308.203125 31.570312 C 307.804688 31.351562 307.382812 31.210938 306.933594 31.144531 C 306.011719 31.007812 305.117188 31.109375 304.25 31.449219 C 303.375 31.773438 302.648438 32.296875 302.0625 33.023438 C 301.78125 33.378906 301.566406 33.773438 301.425781 34.207031 C 301.347656 34.421875 301.285156 34.640625 301.242188 34.863281 L 301.175781 35.207031 L 301.144531 35.550781 C 301.074219 36.480469 301.203125 37.378906 301.53125 38.253906 C 302.210938 40.042969 303.367188 41.4375 305 42.4375 C 305.804688 42.917969 306.65625 43.285156 307.558594 43.535156 C 308.460938 43.785156 309.382812 43.945312 310.316406 44.019531 C 312.203125 44.144531 314.082031 44.054688 315.945312 43.757812 C 317.820312 43.488281 319.675781 43.125 321.515625 42.667969 C 325.191406 41.761719 328.804688 40.59375 332.445312 39.515625 C 334.269531 38.976562 336.101562 38.464844 337.949219 38.019531 C 338.414062 37.910156 338.875 37.796875 339.34375 37.703125 C 339.808594 37.609375 340.273438 37.5 340.742188 37.414062 C 341.675781 37.242188 342.625 37.085938 343.566406 36.972656 C 347.347656 36.523438 351.21875 36.5625 354.949219 37.414062 C 356.820312 37.828125 358.613281 38.476562 360.320312 39.355469 C 362.03125 40.246094 363.5625 41.382812 364.910156 42.761719 Z M 364.714844 42.953125 " fill-opacity="1" fill-rule="nonzero"/></g></svg>