<svg xmlns="http://www.w3.org/2000/svg" xmlns:xlink="http://www.w3.org/1999/xlink" width="500" zoomAndPan="magnify" viewBox="0 0 375 74.999997" height="100" preserveAspectRatio="xMidYMid meet" version="1.0"><defs><clipPath id="eb35e5abfd"><path d="M 15.265625 30 L 187 30 L 187 51.472656 L 15.265625 51.472656 Z M 15.265625 30 " clip-rule="nonzero"/></clipPath><clipPath id="e9bac08255"><path d="M 187 30 L 359.515625 30 L 359.515625 51.472656 L 187 51.472656 Z M 187 30 " clip-rule="nonzero"/></clipPath><clipPath id="d80eba90d5"><path d="M 184 23.722656 L 191 23.722656 L 191 38 L 184 38 Z M 184 23.722656 " clip-rule="nonzero"/></clipPath></defs><g clip-path="url(#eb35e5abfd)"><path fill="#deba7e" d="M 96.289062 49.429688 C 138.488281 49.792969 169.328125 49.714844 176.417969 49.859375 C 177.71875 49.886719 179.046875 49.84375 180.34375 49.753906 C 181.527344 49.667969 182.289062 49.515625 182.894531 49.277344 C 183.503906 49.042969 183.960938 48.722656 184.320312 48.25 C 184.683594 47.777344 184.949219 47.152344 185.050781 46.355469 C 185.152344 45.554688 185.089844 44.585938 184.847656 43.871094 C 184.605469 43.15625 184.1875 42.695312 183.757812 42.316406 C 183.328125 41.941406 182.882812 41.648438 182.308594 41.398438 C 181.730469 41.148438 181.019531 40.945312 180.46875 40.933594 C 179.917969 40.921875 179.527344 41.097656 179.074219 41.367188 C 178.625 41.636719 178.121094 41.992188 177.582031 42.335938 C 177.042969 42.683594 176.472656 43.015625 175.945312 43.472656 C 175.421875 43.933594 174.9375 44.519531 174.742188 45.0625 C 174.546875 45.605469 174.636719 46.105469 174.679688 46.355469 C 174.722656 46.601562 174.722656 46.601562 174.671875 46.578125 C 174.621094 46.550781 174.519531 46.5 174.253906 46.195312 C 173.988281 45.886719 173.558594 45.324219 173.3125 44.710938 C 173.0625 44.101562 173 43.4375 173.089844 42.910156 C 173.179688 42.386719 173.417969 42.003906 173.714844 41.730469 C 174.015625 41.457031 174.367188 41.289062 174.546875 41.207031 C 174.722656 41.125 174.722656 41.125 174.601562 41.128906 C 174.484375 41.136719 174.242188 41.148438 173.917969 41.257812 C 173.597656 41.367188 173.191406 41.570312 172.644531 41.789062 C 172.101562 42.003906 171.417969 42.234375 170.5625 42.433594 C 169.707031 42.632812 168.679688 42.796875 167.648438 42.828125 C 166.613281 42.859375 165.574219 42.757812 164.550781 42.355469 C 163.523438 41.953125 162.507812 41.25 161.550781 40.363281 C 160.597656 39.476562 159.695312 38.402344 159.246094 37.867188 C 158.796875 37.332031 158.796875 37.332031 158.980469 37.421875 C 159.164062 37.511719 159.53125 37.6875 160.222656 37.867188 C 160.914062 38.046875 161.925781 38.226562 162.945312 38.300781 C 163.964844 38.378906 164.992188 38.351562 165.804688 38.277344 C 166.613281 38.199219 167.210938 38.074219 167.957031 37.875 C 168.707031 37.675781 169.605469 37.40625 170.453125 37.199219 C 171.300781 36.988281 172.101562 36.832031 172.746094 36.800781 C 173.394531 36.769531 173.886719 36.859375 174.132812 36.902344 C 174.382812 36.949219 174.382812 36.949219 174.34375 36.921875 C 174.304688 36.898438 174.230469 36.847656 174.070312 36.597656 C 173.914062 36.347656 173.671875 35.902344 173.457031 35.289062 C 173.242188 34.675781 173.050781 33.894531 173.214844 33.144531 C 173.378906 32.390625 173.898438 31.660156 174.28125 31.175781 C 174.660156 30.691406 174.902344 30.449219 174.945312 30.640625 C 174.988281 30.832031 174.835938 31.457031 174.855469 32.101562 C 174.875 32.746094 175.066406 33.410156 175.371094 33.953125 C 175.675781 34.496094 176.09375 34.917969 176.542969 35.363281 C 176.992188 35.8125 177.472656 36.285156 178.050781 36.726562 C 178.628906 37.164062 179.304688 37.574219 180.121094 37.988281 C 180.9375 38.402344 181.898438 38.824219 182.769531 39.191406 C 183.644531 39.554688 184.429688 39.859375 185.082031 40.382812 C 185.734375 40.90625 186.253906 41.648438 186.558594 42.425781 C 186.863281 43.207031 186.949219 44.023438 186.945312 44.878906 C 186.9375 45.734375 186.835938 46.628906 186.5625 47.480469 C 186.292969 48.335938 185.902344 49.214844 185.148438 49.78125 C 182.925781 51.445312 176.785156 50.929688 174.980469 50.890625 C 165.734375 50.683594 137.59375 51.164062 96.457031 51.164062 C 55.324219 51.164062 15.265625 51.042969 15.265625 50.109375 C 15.265625 49.179688 54.09375 49.066406 96.292969 49.429688 Z M 96.289062 49.429688 " fill-opacity="1" fill-rule="evenodd"/></g><g clip-path="url(#e9bac08255)"><path fill="#deba7e" d="M 278.492188 49.429688 C 236.292969 49.792969 205.453125 49.714844 198.363281 49.859375 C 197.0625 49.886719 195.734375 49.84375 194.4375 49.753906 C 193.253906 49.667969 192.492188 49.515625 191.886719 49.277344 C 191.277344 49.042969 190.820312 48.722656 190.460938 48.25 C 190.097656 47.777344 189.832031 47.152344 189.730469 46.355469 C 189.628906 45.554688 189.695312 44.585938 189.933594 43.871094 C 190.175781 43.15625 190.59375 42.695312 191.023438 42.316406 C 191.453125 41.941406 191.898438 41.648438 192.472656 41.398438 C 193.050781 41.148438 193.761719 40.945312 194.3125 40.933594 C 194.863281 40.921875 195.253906 41.097656 195.707031 41.367188 C 196.15625 41.636719 196.660156 41.992188 197.199219 42.335938 C 197.738281 42.683594 198.308594 43.015625 198.835938 43.472656 C 199.359375 43.933594 199.84375 44.519531 200.039062 45.0625 C 200.234375 45.605469 200.148438 46.105469 200.101562 46.355469 C 200.058594 46.601562 200.058594 46.601562 200.109375 46.578125 C 200.160156 46.550781 200.261719 46.5 200.527344 46.195312 C 200.792969 45.886719 201.222656 45.324219 201.46875 44.710938 C 201.71875 44.101562 201.78125 43.4375 201.691406 42.910156 C 201.605469 42.386719 201.363281 42.003906 201.066406 41.730469 C 200.765625 41.457031 200.414062 41.289062 200.234375 41.207031 C 200.058594 41.125 200.058594 41.125 200.179688 41.128906 C 200.296875 41.136719 200.539062 41.148438 200.863281 41.257812 C 201.1875 41.367188 201.589844 41.570312 202.136719 41.789062 C 202.679688 42.003906 203.363281 42.234375 204.21875 42.433594 C 205.074219 42.632812 206.101562 42.796875 207.132812 42.828125 C 208.167969 42.859375 209.207031 42.757812 210.230469 42.355469 C 211.257812 41.953125 212.273438 41.25 213.230469 40.363281 C 214.183594 39.476562 215.085938 38.402344 215.535156 37.867188 C 215.984375 37.332031 215.984375 37.332031 215.800781 37.421875 C 215.617188 37.511719 215.25 37.6875 214.558594 37.867188 C 213.867188 38.046875 212.855469 38.226562 211.835938 38.300781 C 210.816406 38.378906 209.789062 38.351562 208.976562 38.277344 C 208.167969 38.199219 207.570312 38.074219 206.824219 37.875 C 206.078125 37.675781 205.175781 37.40625 204.328125 37.199219 C 203.480469 36.988281 202.679688 36.832031 202.035156 36.800781 C 201.386719 36.769531 200.894531 36.859375 200.648438 36.902344 C 200.398438 36.949219 200.398438 36.949219 200.4375 36.921875 C 200.476562 36.898438 200.550781 36.847656 200.710938 36.597656 C 200.867188 36.347656 201.109375 35.902344 201.324219 35.289062 C 201.539062 34.675781 201.730469 33.894531 201.566406 33.144531 C 201.402344 32.390625 200.882812 31.660156 200.5 31.175781 C 200.121094 30.691406 199.878906 30.449219 199.835938 30.640625 C 199.792969 30.832031 199.945312 31.457031 199.925781 32.101562 C 199.90625 32.746094 199.714844 33.410156 199.410156 33.953125 C 199.105469 34.496094 198.6875 34.917969 198.238281 35.363281 C 197.789062 35.8125 197.308594 36.285156 196.730469 36.726562 C 196.152344 37.164062 195.476562 37.574219 194.660156 37.988281 C 193.84375 38.402344 192.882812 38.824219 192.011719 39.191406 C 191.136719 39.554688 190.351562 39.859375 189.699219 40.382812 C 189.046875 40.90625 188.527344 41.648438 188.222656 42.425781 C 187.917969 43.207031 187.832031 44.023438 187.835938 44.878906 C 187.84375 45.734375 187.945312 46.628906 188.21875 47.480469 C 188.488281 48.335938 188.878906 49.214844 189.632812 49.78125 C 191.855469 51.445312 197.996094 50.929688 199.800781 50.890625 C 209.046875 50.683594 237.1875 51.164062 278.324219 51.164062 C 319.457031 51.164062 359.515625 51.042969 359.515625 50.109375 C 359.515625 49.179688 320.6875 49.066406 278.492188 49.429688 Z M 278.492188 49.429688 " fill-opacity="1" fill-rule="evenodd"/></g><g clip-path="url(#d80eba90d5)"><path fill="#deba7e" d="M 187.390625 37.917969 C 185.304688 36.125 184.003906 33.613281 184.003906 30.832031 C 184.003906 28.050781 185.304688 25.539062 187.390625 23.746094 C 189.476562 25.539062 190.777344 28.050781 190.777344 30.832031 C 190.777344 33.613281 189.476562 36.125 187.390625 37.917969 Z M 187.390625 37.917969 " fill-opacity="1" fill-rule="evenodd"/></g><path fill="#deba7e" d="M 182.667969 36.519531 C 180.742188 36.089844 179.007812 35 177.9375 33.351562 C 176.867188 31.707031 176.667969 29.828125 177.210938 28.132812 C 179.136719 28.558594 180.875 29.652344 181.945312 31.300781 C 183.015625 32.945312 183.214844 34.824219 182.667969 36.519531 Z M 182.667969 36.519531 " fill-opacity="1" fill-rule="evenodd"/><path fill="#deba7e" d="M 192.113281 36.519531 C 191.566406 34.824219 191.765625 32.945312 192.835938 31.300781 C 193.90625 29.652344 195.644531 28.558594 197.570312 28.132812 C 198.113281 29.828125 197.914062 31.707031 196.84375 33.351562 C 195.773438 35 194.039062 36.089844 192.113281 36.519531 Z M 192.113281 36.519531 " fill-opacity="1" fill-rule="evenodd"/><path fill="#deba7e" d="M 175.835938 48.425781 C 170.335938 48.425781 164.65625 48.121094 159.308594 46.726562 C 154.113281 45.371094 149.289062 42.921875 143.957031 42.007812 C 136.796875 40.644531 131.714844 42.847656 128.152344 48.699219 C 130.097656 39.449219 137.664062 38.363281 144.371094 39.511719 C 147.65625 40.074219 150.554688 41.105469 153.585938 42.476562 C 162.542969 46.539062 167.257812 47.253906 175.835938 48.425781 Z M 175.835938 48.425781 " fill-opacity="1" fill-rule="nonzero"/><path fill="#deba7e" d="M 198.945312 48.195312 C 204.445312 48.195312 210.125 47.890625 215.472656 46.496094 C 220.667969 45.140625 225.492188 42.691406 230.824219 41.78125 C 237.988281 40.414062 243.066406 42.617188 246.628906 48.46875 C 244.683594 39.21875 237.117188 38.132812 230.410156 39.28125 C 227.125 39.84375 224.226562 40.875 221.195312 42.25 C 212.238281 46.3125 207.523438 47.023438 198.945312 48.195312 Z M 198.945312 48.195312 " fill-opacity="1" fill-rule="nonzero"/><path fill="#deba7e" d="M 258.980469 41.085938 L 269.59375 44.734375 L 258.980469 48.382812 L 248.371094 44.734375 Z M 258.980469 41.085938 " fill-opacity="1" fill-rule="evenodd"/><path fill="#deba7e" d="M 115.800781 41.085938 L 126.410156 44.734375 L 115.800781 48.382812 L 105.1875 44.734375 Z M 115.800781 41.085938 " fill-opacity="1" fill-rule="evenodd"/></svg>